<svg width="136" height="198" viewBox="0 0 136 198" fill="none" xmlns="http://www.w3.org/2000/svg">
<g clip-path="url(#clip0_5_5)">
<path d="M71.4238 68.5853C71.4238 68.5853 75.4654 70.8068 79.018 70.3371C82.5705 69.8674 81.1546 64.4852 81.1546 64.4852C81.1546 64.4852 84.5913 66.237 87.6805 64.9549C90.7696 63.6728 89.1092 60.2708 89.1092 60.2708C89.1092 60.2708 97.9004 64.5994 92.5459 74.323L100.977 74.7927L93.3825 81.2285C93.3825 81.2285 108.7 91.993 110.476 94.2271C111.969 96.1058 117.89 102.453 115.045 112.062C112.201 121.659 76.2892 164.831 76.2892 164.831C76.2892 164.831 66.7901 132.41 56.3384 132.169C46.9422 131.953 41.6135 140.37 49.2205 157.57C49.2205 157.57 44.664 155.095 41.858 149.141C37.6104 140.141 38.2926 121.976 55.8622 116.124C55.8622 116.124 28.0855 112.265 27.7251 147.504C27.7251 147.504 18.4191 133.781 27.7251 117.876C35.9886 103.748 52.1809 104.535 52.1809 104.535C52.1809 104.535 28.9093 97.8576 18.1101 121.506C18.1101 121.506 16.7715 114.22 22.0231 104.649C28.3687 93.0846 61.1266 79.4894 76.2892 109.447C76.2892 109.447 78.5031 97.9337 85.0675 79.3625C85.0675 79.3625 85.6596 78.1947 81.1546 77.9535C75.3238 77.6488 71.9 72.6855 71.4238 68.5853Z" fill="#1A3B67"/>
<path d="M69.699 171.901C69.3386 170.848 69.0554 169.908 68.7079 168.982C68.3475 168.042 67.7683 167.205 66.6871 167.128C65.5801 167.04 65.0009 167.839 64.4474 168.702C64.1128 169.223 63.5851 169.642 63.0573 169.997C62.285 170.518 61.6286 171.076 61.693 172.104C61.7573 173.082 62.4009 173.628 63.2247 173.958C64.2672 174.364 65.3485 174.669 66.6485 175.1C66.0178 175.278 65.5287 175.405 65.0524 175.557C64.4603 175.748 63.8682 175.925 63.3019 176.166C62.4395 176.522 61.7573 177.08 61.6672 178.083C61.5771 179.124 62.3365 179.632 63.0959 180.14C63.5336 180.432 64.0227 180.736 64.3059 181.155C65.9405 183.618 66.8802 183.681 68.7079 181.371C68.4891 182.488 68 183.186 66.7128 184.049C66.2752 184.341 65.8762 184.671 66.3782 185.09C66.6099 185.293 67.2792 185.293 67.5495 185.09C68.8238 184.151 69.4287 182.793 69.8149 181.307C69.9178 180.914 70.0079 180.52 70.1624 179.911C70.4584 180.584 70.5357 181.142 70.8703 181.473C71.4238 182.044 72.0931 182.805 72.7882 182.869C73.406 182.932 74.1525 182.234 74.7575 181.752C75.4011 181.244 75.8644 180.52 76.5209 180.063C78.1942 178.883 78.1684 177.22 76.3536 176.243C75.813 175.951 75.208 175.773 74.6159 175.583C74.0753 175.418 73.509 175.303 72.9298 174.973C73.4446 174.846 73.9852 174.745 74.4872 174.567C75.1823 174.326 75.9159 174.135 76.5338 173.755C78.1556 172.777 78.1427 171.267 76.6367 170.124C75.8902 169.566 75.208 168.893 74.6288 168.169C73.4189 166.671 71.9258 166.684 71.0248 168.385C70.4713 169.426 70.1753 170.594 69.7119 171.889L69.699 171.901Z" fill="#FF0000"/>
<path d="M68 198C65.8633 198 63.7138 197.441 61.8088 196.324C1.77626 161.289 0.0386144 104.458 0 102.059V61.921C0 55.3455 5.43176 49.9887 12.0992 49.9887H123.901C130.568 49.9887 136 55.3455 136 61.921V101.996C135.961 104.458 134.224 161.289 74.1912 196.324C72.2862 197.441 70.1367 198 68 198ZM12.0992 57.11C9.40905 57.11 7.2209 59.268 7.2209 61.921V101.996C7.2209 102.478 9.03578 157.252 65.4901 190.193C67.0346 191.094 68.9654 191.094 70.5228 190.193C127.119 157.164 128.779 102.478 128.792 101.932V61.921C128.792 59.268 126.604 57.11 123.914 57.11H12.0992Z" fill="#FF0000"/>
<path d="M0.798035 44.9746L13.0388 19.1298H16.1537L28.4846 44.9746H21.5983L19.9894 41.598H9.25459L7.68427 44.9746H0.798035ZM11.9447 35.8858H17.2864L14.6349 30.1989L11.9447 35.8858Z" fill="#1A3B67"/>
<path d="M47.1739 44.9746L43.1194 38.1199H38.859V44.9746H31.9727V19.1298H43.0164C48.3324 19.1298 52.6572 23.4076 52.6572 28.6375C52.6572 31.3921 51.4344 33.8801 49.5423 35.5938L55.1028 44.9619H47.1739V44.9746ZM38.859 32.268H43.1194C45.2175 32.268 46.8908 30.6432 46.8908 28.5867C46.8908 26.5303 45.2175 24.8674 43.1194 24.8674H38.859V32.2807V32.268Z" fill="#1A3B67"/>
<path d="M58.488 19.1298H74.7704V24.7405H65.3742V28.9422H73.6892V34.6671H65.3742V39.4274H74.7704V44.9746H58.488V19.1298Z" fill="#1A3B67"/>
<path d="M98.943 44.9746L86.5736 32.7377V44.9746H79.6873V19.1298H82.4804L94.8885 31.3286V19.1298H101.775V44.9746H98.943Z" fill="#1A3B67"/>
<path d="M105.302 44.9746L117.529 19.1298H120.644L132.975 44.9746H126.089L124.48 41.598H113.758L112.188 44.9746H105.302ZM116.448 35.8858H121.79L119.138 30.1989L116.448 35.8858Z" fill="#1A3B67"/>
<path d="M38.3828 0H41.665V9.07616H46.17V12.3258H38.3828V0Z" fill="#FF0000"/>
<path d="M51.4859 7.41326C51.4859 8.30183 52.2196 9.02539 53.1206 9.02539C54.0216 9.02539 54.7553 8.30183 54.7553 7.41326V0H58.0503V7.46403C58.0503 10.1805 55.8365 12.3258 53.1206 12.3258C50.4047 12.3258 48.1908 10.1678 48.1908 7.46403V0H51.4988V7.41326H51.4859Z" fill="#FF0000"/>
<path d="M68.605 4.07475C68.0901 3.567 67.3564 3.27504 66.5069 3.27504C64.8079 3.27504 63.5722 4.49365 63.5722 6.16925C63.5722 7.84485 64.8079 9.06347 66.5069 9.06347C67.3564 9.06347 68.0901 8.77151 68.605 8.23836L70.9347 10.5106C69.802 11.6276 68.2317 12.3385 66.4941 12.3385C63.0445 12.3385 60.2385 9.57123 60.2385 6.16925C60.2385 2.76728 63.0445 0 66.4941 0C68.206 0 69.7634 0.672779 70.8961 1.78984L68.5921 4.07475H68.605Z" fill="#FF0000"/>
<path d="M85.5309 0L79.8289 5.63611L86.5993 12.3258H81.9656L77.512 7.9464L76.7269 8.73343V12.3131H73.4446V0H76.7269V4.16361L80.923 0H85.5309Z" fill="#FF0000"/>
<path d="M94.4637 7.79408V12.3385H91.2073V7.79408L86.6379 0H90.4221L92.8291 4.11284L95.2489 0H99.0331L94.4637 7.79408Z" fill="#FF0000"/>
<path d="M30.1579 3.36389H0.141602V9.43159H30.1579V3.36389Z" fill="#FF0000"/>
<path d="M134.584 3.36389H104.568V9.43159H134.584V3.36389Z" fill="#FF0000"/>
</g>
<defs>
<clipPath id="clip0_5_5">
<rect width="136" height="198" fill="white"/>
</clipPath>
</defs>
</svg>
